# xmcd
#
# Track frame offsets: 
#        150
#        11095
#        28757
#        44070
#        66832
#        86282
#        99105
#        116052
#        132897
#        147200
#        164322
#        178767
#
# Disc length: 2617 seconds
#
# Revision: 3
# Processed by: cddbd v1.5.1PL2 Copyright (c) Steve Scherf et al.
# Submitted via: ExactAudioCopy v0.95b4
#
DISCID=9f0a370c
DTITLE=John Pizzarelli - Let's Share Christmas
DYEAR=1900
DGENRE=Christmas
TTITLE0=Let It Snow, Let It Snow, Let It Snow
TTITLE1=Let's Share Christmas
TTITLE2=White Christmas
TTITLE3=Have Yourself A Merry Little Christmas
TTITLE4=What Are You Doing New Year's Eve?
TTITLE5=Sleigh Ride
TTITLE6=Christmas Time Is Here
TTITLE7=I'll Be Homw For Christmas
TTITLE8=Santa Claus Is Near
TTITLE9=The Christmas Song
TTITLE10=Snowfall
TTITLE11=Silent Night
EXTD=
EXTT0=
EXTT1=
EXTT2=
EXTT3=
EXTT4=
EXTT5=
EXTT6=
EXTT7=
EXTT8=
EXTT9=
EXTT10=
EXTT11=
PLAYORDER=
